<svg xmlns="http://www.w3.org/2000/svg" width="48.435" height="36.797" viewBox="0 0 48.435 36.797">
  <path id="Path_10" data-name="Path 10" d="M422.712,172.921l-1.091-1.091a1.39,1.39,0,0,0-1.966,0L388.8,202.681l-10.768-10.768a1.012,1.012,0,0,0-1.431,0l-1.625,1.625a1.012,1.012,0,0,0,0,1.431l11.7,11.7c.017.018.032.037.05.055l1.091,1.091a1.406,1.406,0,0,0,.11.1,1.015,1.015,0,0,0,.188.127,1.389,1.389,0,0,0,1.668-.225l32.927-32.927A1.39,1.39,0,0,0,422.712,172.921Z" transform="translate(-374.684 -171.423)" fill="#0056d2"/>
</svg>
