<svg xmlns="http://www.w3.org/2000/svg" viewBox="0 0 205.91 281.09"><defs><style>.cls-1{fill:#ef4f54;}.cls-2{fill:#414fa1;}.cls-3{fill:#60c2f0;}</style></defs><g id="Layer_2" data-name="Layer 2"><g id="Layer_1-2" data-name="Layer 1"><path class="cls-1" d="M176.79,220.74l0,17a12.62,12.62,0,0,1-14.47,9l-1.37-.26-121.53-50-1.65-.65a18.16,18.16,0,0,1-9-7.74V17.46c0-3.31,2.17-7.73,4.94-10.26A28.63,28.63,0,0,1,54.88.07c4,.26,7.09.88,14.57,3A386.26,386.26,0,0,1,109.3,16.78l66.5,27a190.87,190.87,0,0,1,18.56,8.32,21.67,21.67,0,0,1,11.55,18l-1.34,148.79c0,.89-.74,2.45-1.62,2.62-2.62.5-7.94,1.05-11.07-.59a2.37,2.37,0,0,1-1.25-1.91V219L190,96V83.18l.22-9.34c-.1-7.37-2.75-11.62-14.36-17.37l-96.17-39a140.86,140.86,0,0,0-14.4-4.71C47.73,7.61,45,14.63,44.6,16a9,9,0,0,0-.16,4,12.74,12.74,0,0,0,8.11,9.69L166.68,73.77a17.73,17.73,0,0,1,10,16.23Z"/><path class="cls-2" d="M134.31,257.29l0,15.42a11.44,11.44,0,0,1-13.13,8.18l-1.24-.23L9.64,235.28l-1.49-.59a16.42,16.42,0,0,1-8.15-7v-155c0-3,2-7,4.48-9.31a25.94,25.94,0,0,1,19.24-6.49c3.63.24,6.43.81,13.21,2.73A346.57,346.57,0,0,1,73.08,72l60.33,24.51a172.6,172.6,0,0,1,16.85,7.56,19.71,19.71,0,0,1,10.48,16.39l-1.22,135.16c0,.81-.68,2.22-1.47,2.38-2.38.46-7.2,1-10-.53a2.19,2.19,0,0,1-1.14-1.74v-.08L146.28,144V132.33l.19-8.48c-.09-6.7-2.5-10.56-13-15.79L46.19,72.59a126.25,126.25,0,0,0-13.06-4.27c-15.9-4.63-18.36,1.74-18.74,3A8.11,8.11,0,0,0,14.24,75a11.56,11.56,0,0,0,7.36,8.79l103.54,40a16.12,16.12,0,0,1,9,14.75Z"/><path class="cls-3" d="M108.05,161.5l.06-.19-.07.19c-.41,1.05-.89,2.53-1.52,4.34l0,0a84.16,84.16,0,0,1-4.6,10.07,76.1,76.1,0,0,1-23.15,26.34c-.61.45-1.23.88-1.84,1.3h0l0,0C63.38,212.8,51,214.53,39.54,216.13a111.7,111.7,0,0,1-35.79-.84c69.51-6.65,74.14-43.65,76.56-54.44l-11.53-.27L82.2,141.5l13.43-19.11,11.76,19L120,161.78Z"/></g></g></svg>