<?xml version="1.0" encoding="utf-8"?>
<!-- Generator: Adobe Illustrator 23.0.1, SVG Export Plug-In . SVG Version: 6.00 Build 0)  -->
<svg version="1.1" id="Whatsapp" xmlns="http://www.w3.org/2000/svg" xmlns:xlink="http://www.w3.org/1999/xlink" x="0px" y="0px"
	 viewBox="0 0 64 64" style="enable-background:new 0 0 64 64;" xml:space="preserve">
<style type="text/css">
	.st0{fill:#30BF39;}
	.st1{fill:#FFFFFF;enable-background:new    ;}
	.st2{fill:#007DD2;}
	.st3{fill:#FFFFFF;}
</style>
<title>whatsapp icon</title>
<path class="st0" d="M42.2,35.4c0.1,0.2,0.1,1-0.3,2c-0.4,1-2.2,1.9-3,1.9s-0.8,0.6-5.1-1.3c-4.3-1.9-6.9-6.5-7.1-6.8
	s-1.7-2.4-1.6-4.5s1.2-3.1,1.7-3.5c0.3-0.3,0.7-0.5,1.2-0.5c0.3,0,0.6,0,0.8,0.1c0.3,0,0.6-0.1,0.9,0.8s1.1,3,1.2,3.3
	c0.1,0.2,0.2,0.5,0,0.8s-0.2,0.5-0.5,0.7c-0.2,0.3-0.4,0.5-0.7,0.7c-0.2,0.2-0.5,0.4-0.2,0.9c0.2,0.5,1,1.9,2.3,3.1
	c1.6,1.5,3,2,3.4,2.3c0.4,0.2,0.7,0.2,0.9-0.1c0.3-0.3,1.1-1.2,1.4-1.6c0.3-0.4,0.6-0.3,1-0.2c0.4,0.2,2.5,1.3,2.9,1.5l0,0
	C41.8,35.1,42.1,35.2,42.2,35.4z"/>
<path class="st1" d="M32,1C14.9,1,1,14.9,1,32s13.9,31,31,31s31-13.9,31-31S49.1,1,32,1z M33.5,45.1c-2.8,0-5.5-0.8-7.8-2.3
	l-5.4,1.7l1.8-5.2c-1.7-2.4-2.7-5.3-2.7-8.3c0-7.8,6.3-14.1,14.1-14.1S47.6,23.2,47.6,31S41.2,45.1,33.5,45.1z"/>
<path class="st2" d="M33.5,14.1c-9.3,0-16.9,7.6-16.9,16.9c0,3.1,0.8,6.1,2.4,8.7l-3.1,9.1l9.4-3c2.5,1.4,5.3,2.1,8.2,2.1
	c9.3,0,16.9-7.6,16.9-16.9S42.8,14.1,33.5,14.1z M33.5,45.1c-2.8,0-5.5-0.8-7.8-2.3l-5.4,1.7l1.8-5.2c-1.7-2.4-2.7-5.3-2.7-8.3
	c0-7.8,6.3-14.1,14.1-14.1S47.6,23.2,47.6,31S41.2,45.1,33.5,45.1z M41.4,34.8L41.4,34.8c-0.4-0.2-2.5-1.3-2.9-1.5s-0.7-0.2-1,0.2
	s-1.2,1.4-1.4,1.6c-0.3,0.3-0.5,0.3-0.9,0.1s-1.8-0.7-3.4-2.3c-1.2-1.2-2-2.6-2.3-3.1c-0.2-0.4,0-0.7,0.2-0.9
	c0.2-0.2,0.5-0.5,0.7-0.7s0.3-0.4,0.5-0.7c0.2-0.3,0.1-0.5,0-0.8c-0.1-0.2-0.9-2.4-1.2-3.3c-0.3-0.9-0.7-0.7-0.9-0.8
	c-0.3,0-0.5,0-0.8-0.1c-0.4,0-0.9,0.2-1.2,0.5c-0.4,0.4-1.6,1.4-1.7,3.5s1.4,4.3,1.6,4.5c0.2,0.3,2.8,4.9,7.1,6.8s4.3,1.3,5.1,1.3
	s2.6-1,3-1.9c0.4-1,0.4-1.9,0.3-2C42.1,35.2,41.8,35.1,41.4,34.8z M42.2,35.4c-0.1-0.2-0.4-0.3-0.8-0.5l0,0
	c-0.4-0.2-2.5-1.4-2.9-1.5c-0.4-0.2-0.7-0.2-1,0.2s-1.2,1.4-1.4,1.6c-0.3,0.3-0.5,0.3-0.9,0.1s-1.8-0.7-3.4-2.3
	c-1.2-1.2-2-2.6-2.3-3.1c-0.2-0.4,0-0.7,0.2-0.9c0.2-0.2,0.5-0.5,0.7-0.7s0.3-0.4,0.5-0.7c0.2-0.3,0.1-0.5,0-0.8
	c-0.1-0.2-0.9-2.4-1.2-3.3c-0.3-0.9-0.7-0.7-0.9-0.8c-0.3,0-0.5,0-0.8-0.1c-0.4,0-0.9,0.2-1.2,0.5c-0.4,0.4-1.6,1.4-1.7,3.5
	s1.4,4.3,1.6,4.5c0.2,0.3,2.8,4.9,7.1,6.8s4.3,1.3,5.1,1.3s2.6-1,3-1.9C42.3,36.4,42.3,35.5,42.2,35.4z M42.2,35.4
	c-0.1-0.2-0.4-0.3-0.8-0.5l0,0c-0.4-0.2-2.5-1.4-2.9-1.5c-0.4-0.2-0.7-0.2-1,0.2s-1.2,1.4-1.4,1.6c-0.3,0.3-0.5,0.3-0.9,0.1
	s-1.8-0.7-3.4-2.3c-1.2-1.2-2-2.6-2.3-3.1c-0.2-0.4,0-0.7,0.2-0.9c0.2-0.2,0.5-0.5,0.7-0.7s0.3-0.4,0.5-0.7c0.2-0.3,0.1-0.5,0-0.8
	c-0.1-0.2-0.9-2.4-1.2-3.3c-0.3-0.9-0.7-0.7-0.9-0.8c-0.3,0-0.5,0-0.8-0.1c-0.4,0-0.9,0.2-1.2,0.5c-0.4,0.4-1.6,1.4-1.7,3.5
	s1.4,4.3,1.6,4.5c0.2,0.3,2.8,4.9,7.1,6.8s4.3,1.3,5.1,1.3s2.6-1,3-1.9C42.3,36.4,42.3,35.5,42.2,35.4z"/>
<path class="st3" d="M33.5,16.9c-7.8,0-14.1,6.3-14.1,14.1c0,3,0.9,5.9,2.7,8.3l-1.8,5.2l5.4-1.7c2.3,1.5,5,2.3,7.8,2.3
	c7.8,0,14.1-6.3,14.1-14.1S41.2,16.9,33.5,16.9z M41.9,37.4c-0.4,1-2.2,1.9-3,1.9s-0.8,0.6-5.1-1.3c-4.3-1.9-6.9-6.5-7.1-6.8
	s-1.7-2.4-1.6-4.5s1.2-3.1,1.7-3.5c0.3-0.3,0.7-0.5,1.2-0.5c0.3,0,0.6,0,0.8,0.1c0.3,0,0.6-0.1,0.9,0.8s1.1,3,1.2,3.3
	c0.1,0.2,0.2,0.5,0,0.8s-0.2,0.5-0.5,0.7c-0.2,0.3-0.4,0.5-0.7,0.7c-0.2,0.2-0.5,0.4-0.2,0.9c0.2,0.5,1,1.9,2.3,3.1
	c1.6,1.5,3,2,3.4,2.3c0.4,0.2,0.7,0.2,0.9-0.1c0.3-0.3,1.1-1.2,1.4-1.6c0.3-0.4,0.6-0.3,1-0.2c0.4,0.2,2.5,1.3,2.9,1.5l0,0
	c0.4,0.2,0.7,0.4,0.8,0.5C42.3,35.5,42.3,36.4,41.9,37.4z"/>
</svg>
